<?xml version="1.0" standalone="no"?>
<!DOCTYPE svg PUBLIC "-//W3C//DTD SVG 20010904//EN"
 "http://www.w3.org/TR/2001/REC-SVG-20010904/DTD/svg10.dtd">
<svg version="1.0" xmlns="http://www.w3.org/2000/svg"
 width="512.000000pt" height="512.000000pt" viewBox="0 0 512.000000 512.000000"
 preserveAspectRatio="xMidYMid meet">

<g transform="translate(0.000000,512.000000) scale(0.100000,-0.100000)"
fill="#000000" stroke="none">
<path d="M2505 4869 c-24 -5 -74 -35 -122 -72 -217 -165 -1732 -1353 -1733
-1358 0 -5 180 -238 210 -272 3 -4 67 40 141 98 901 709 1547 1210 1559 1210
12 0 590 -448 1563 -1213 72 -56 134 -99 138 -95 29 34 209 267 209 272 -1 3
-106 88 -235 189 l-235 183 0 535 0 534 -320 0 -320 0 0 -280 c0 -154 -2 -280
-5 -280 -3 0 -155 117 -338 260 -183 143 -345 266 -362 274 -42 20 -103 26
-150 15z"/>
<path d="M1520 2680 l0 -280 400 0 400 0 0 280 0 280 -400 0 -400 0 0 -280z"/>
<path d="M4412 2623 c-18 -9 -45 -32 -60 -51 l-27 -35 -3 -884 c-3 -985 -7
-926 66 -981 l35 -27 229 -3 228 -3 0 1000 0 1001 -217 0 c-181 0 -224 -3
-251 -17z"/>
</g>
</svg>
