<?xml version="1.0" standalone="no"?>
<!DOCTYPE svg PUBLIC "-//W3C//DTD SVG 20010904//EN"
 "http://www.w3.org/TR/2001/REC-SVG-20010904/DTD/svg10.dtd">
<svg version="1.0" xmlns="http://www.w3.org/2000/svg"
 width="512.000000pt" height="512.000000pt" viewBox="0 0 512.000000 512.000000"
 preserveAspectRatio="xMidYMid meet">

<g transform="translate(0.000000,512.000000) scale(0.100000,-0.100000)"
fill="#000000" stroke="none">
<path d="M2448 4867 c-20 -12 -177 -155 -350 -317 -172 -163 -347 -327 -388
-365 -41 -38 -237 -222 -435 -410 -198 -188 -449 -425 -558 -528 -109 -102
-207 -197 -217 -210 -56 -71 -38 -198 36 -256 58 -46 157 -52 217 -13 15 10
393 363 840 783 446 421 843 794 880 829 l68 63 37 -35 c20 -19 325 -304 677
-633 352 -330 732 -685 843 -789 112 -105 220 -201 240 -213 67 -41 181 -24
234 34 26 28 48 88 48 127 0 84 15 69 -991 1011 -528 495 -977 910 -997 922
-27 17 -53 23 -92 23 -39 0 -65 -6 -92 -23z"/>
<path d="M2215 2843 c-32 -2 -65 -9 -72 -15 -17 -14 -19 -988 -3 -988 6 0 184
-20 396 -45 211 -25 393 -45 404 -45 20 0 20 9 20 534 l0 535 -22 15 c-19 14
-67 16 -343 14 -176 -1 -347 -3 -380 -5z"/>
<path d="M142 2541 c-29 -10 -66 -31 -83 -47 -60 -57 -59 -40 -59 -1028 0
-620 4 -913 11 -941 16 -57 55 -104 106 -127 39 -17 63 -19 222 -16 l179 3 39
31 c21 16 48 50 60 74 l23 44 0 931 c0 878 -1 932 -19 970 -26 57 -79 101
-141 114 -84 18 -276 13 -338 -8z"/>
</g>
</svg>
